<svg class="icon" viewBox="0 0 1024 1024" xmlns="http://www.w3.org/2000/svg" width="128" height="128"><defs><style>@font-face{font-family:feedback-iconfont;src:url(//at.alicdn.com/t/font_1031158_u69w8yhxdu.woff2?t=1630033759944) format(&quot;woff2&quot;),url(//at.alicdn.com/t/font_1031158_u69w8yhxdu.woff?t=1630033759944) format(&quot;woff&quot;),url(//at.alicdn.com/t/font_1031158_u69w8yhxdu.ttf?t=1630033759944) format(&quot;truetype&quot;)}</style></defs><path d="M482.133 366.933c4.267 0 4.267 0 0 0 4.267-17.066 8.534-25.6 8.534-38.4V320c4.266-21.333 4.266-38.4 0-42.667v-4.266L486.4 268.8s0 4.267-4.267 4.267c-8.533 25.6-8.533 55.466 0 93.866zm-128 294.4c-8.533 4.267-17.066 8.534-21.333 12.8-29.867 25.6-51.2 55.467-55.467 68.267 25.6-4.267 51.2-29.867 76.8-81.067 4.267 0 4.267 0 0 0 4.267 0 0 0 0 0zm392.534-64c-4.267-4.266-21.334-17.066-81.067-17.066h-8.533v4.266c29.866 12.8 59.733 21.334 81.066 21.334h12.8V601.6s-4.266 0-4.266-4.267zm64-469.333H213.333C166.4 128 128 166.4 128 213.333v597.334C128 857.6 166.4 896 213.333 896h597.334C857.6 896 896 857.6 896 810.667V213.333C896 166.4 857.6 128 810.667 128zm-46.934 503.467C755.2 635.733 742.4 640 725.333 640c-34.133 0-85.333-8.533-128-29.867-72.533 8.534-128 17.067-170.666 34.134-4.267 0-4.267 0-8.534 4.266-51.2 89.6-93.866 132.267-128 132.267-8.533 0-12.8 0-17.066-4.267l-21.334-12.8v-4.266c-4.266-8.534-4.266-12.8-4.266-21.334 4.266-21.333 29.866-59.733 81.066-89.6 8.534-4.266 21.334-12.8 38.4-21.333 12.8-21.333 25.6-46.933 42.667-76.8 21.333-42.667 34.133-85.333 46.933-123.733-17.066-51.2-25.6-81.067-8.533-140.8 4.267-17.067 17.067-34.134 34.133-34.134h8.534c8.533 0 17.066 4.267 25.6 8.534 29.866 29.866 17.066 98.133 0 153.6v4.266c17.066 46.934 42.666 85.334 68.266 110.934 12.8 8.533 21.334 17.066 38.4 25.6 21.334 0 38.4-4.267 55.467-4.267 51.2 0 85.333 8.533 98.133 29.867 4.267 8.533 4.267 17.066 4.267 25.6-4.267 4.266-8.533 17.066-17.067 25.6zM486.4 465.067c-8.533 29.866-25.6 64-42.667 102.4-8.533 17.066-17.066 29.866-25.6 46.933h8.534c55.466-21.333 106.666-34.133 140.8-38.4-8.534-4.267-12.8-8.533-17.067-12.8-21.333-25.6-46.933-59.733-64-98.133z"/></svg>